<svg width="211" height="34" viewBox="0 0 211 34" fill="none" xmlns="http://www.w3.org/2000/svg">
<path d="M0 33.3939V0H5.37718L16.6693 22.3792V0H21.8043V33.3939H16.2539L5.13457 11.4421V33.3939H0Z" fill="#383C67"/>
<path d="M31.5439 16.6504L26.7921 15.6244C27.3288 13.2609 28.2549 11.5122 29.5643 10.377C30.8732 9.24237 32.8212 8.67476 35.4017 8.67476C37.7458 8.67476 39.4955 9.00912 40.6454 9.68529C41.7886 10.3615 42.5995 11.2169 43.0659 12.2584C43.5322 13.3 43.7682 15.2044 43.7682 17.9872L43.6918 25.4493C43.6918 27.5714 43.7748 29.1421 43.941 30.1527C44.1066 31.1632 44.4196 32.2432 44.8798 33.3939H39.6678C39.5337 32.9739 39.3615 32.3524 39.1632 31.5286C39.0806 31.1477 39.0164 30.8989 38.9782 30.7823C38.0842 31.8549 37.126 32.6557 36.1041 33.1917C35.0822 33.7283 33.9965 34 32.8406 34C30.8033 34 29.1938 33.3238 28.0184 31.9715C26.8431 30.6266 26.2559 28.9163 26.2559 26.8487C26.2559 25.4883 26.524 24.2682 27.0607 23.1956C27.5969 22.1305 28.3441 21.3067 29.3151 20.7391C30.2794 20.1714 31.6718 19.6739 33.4919 19.2465C35.9445 18.687 37.6499 18.1585 38.5949 17.6765V17.0313C38.5949 15.7875 38.3462 14.9011 37.8477 14.3651C37.3431 13.836 36.3982 13.5717 35.0118 13.5717C34.073 13.5717 33.3451 13.7975 32.8212 14.2559C32.2911 14.7069 31.8696 15.5078 31.5439 16.6504ZM38.5949 21.8271C37.9242 22.0995 36.8579 22.4258 35.3951 22.8066C33.9389 23.1875 32.9812 23.5603 32.5337 23.9183C31.8507 24.5169 31.5057 25.2632 31.5057 26.1726C31.5057 27.0739 31.7804 27.8438 32.3293 28.497C32.8788 29.1496 33.575 29.4759 34.4247 29.4759C35.3696 29.4759 36.2769 29.095 37.1387 28.3413C37.7712 27.7582 38.1928 27.0584 38.3905 26.2191C38.5246 25.6751 38.5949 24.6335 38.5949 23.1019V21.8271Z" fill="#383C67"/>
<path d="M48.9476 5.92297V0H54.1979V5.92297H48.9476ZM48.9476 33.3939V9.1878H54.1979V33.3939H48.9476Z" fill="#383C67"/>
<path d="M59.2112 9.18778H64.0399V12.4917C65.7708 9.94955 67.8335 8.67476 70.2285 8.67476C71.4997 8.67476 72.6047 8.99361 73.5369 9.6307C74.4757 10.2684 75.2423 11.2324 75.8361 12.5227C76.7112 11.2324 77.6567 10.2684 78.6654 9.6307C79.6745 8.99361 80.7541 8.67476 81.9039 8.67476C83.3601 8.67476 84.5925 9.03208 85.6078 9.75539C86.617 10.4781 87.3708 11.5351 87.8687 12.9346C88.2332 13.9606 88.4116 15.6318 88.4116 17.9407V33.3939H83.1618V19.5809C83.1618 17.179 82.9829 15.6318 82.619 14.9402C82.1338 14.0307 81.3799 13.5717 80.3708 13.5717C79.6363 13.5717 78.9401 13.844 78.2887 14.3881C77.6434 14.9402 77.171 15.7404 76.8835 16.79C76.596 17.8471 76.4559 19.5108 76.4559 21.788V33.3939H71.2056V20.1479C71.2056 17.8005 71.1098 16.277 70.9248 15.6008C70.7397 14.9166 70.4523 14.4036 70.0563 14.0692C69.6663 13.7355 69.1302 13.5717 68.4594 13.5717C67.6485 13.5717 66.9202 13.836 66.2754 14.3651C65.6235 14.9011 65.1638 15.6628 64.883 16.6659C64.6016 17.6684 64.4614 19.3321 64.4614 21.6485V33.3939H59.2112V9.18778Z" fill="#383C67"/>
<path d="M105.164 25.7452L110.414 26.8177C109.743 29.1576 108.677 30.9374 107.227 32.1657C105.771 33.3859 103.951 34 101.773 34C98.3178 34 95.7566 32.6241 94.1022 29.8729C92.7933 27.6651 92.1353 24.8823 92.1353 21.5163C92.1353 17.5052 92.9977 14.357 94.7153 12.0872C96.4335 9.80935 98.6113 8.67476 101.243 8.67476C104.193 8.67476 106.525 9.86394 108.236 12.2429C109.942 14.6213 110.759 18.267 110.682 23.1795H97.5385C97.5767 25.0765 97.9982 26.5535 98.8096 27.6105C99.6144 28.6676 100.623 29.1961 101.824 29.1961C102.648 29.1961 103.338 28.9244 103.893 28.3804C104.455 27.8357 104.877 26.9573 105.164 25.7452ZM105.471 19.262C105.432 17.4041 105.043 15.9891 104.296 15.0258C103.549 14.0537 102.641 13.5717 101.569 13.5717C100.425 13.5717 99.4798 14.0847 98.7326 15.1033C97.9854 16.1213 97.6215 17.5133 97.6343 19.262H105.471Z" fill="#383C67"/>
<path d="M125.819 33.3939V0.279778H131.375V27.7507H145.132V33.3939H125.819Z" fill="#383C67"/>
<path d="M149.035 5.92297V0H154.285V5.92297H149.035ZM149.035 33.3939V9.1878H154.285V33.3939H149.035Z" fill="#383C67"/>
<path d="M159.299 9.18778H164.127V12.4917C165.858 9.94955 167.921 8.67476 170.316 8.67476C171.587 8.67476 172.692 8.99361 173.624 9.6307C174.563 10.2684 175.33 11.2324 175.923 12.5227C176.799 11.2324 177.744 10.2684 178.753 9.6307C179.762 8.99361 180.841 8.67476 181.991 8.67476C183.447 8.67476 184.68 9.03208 185.695 9.75539C186.704 10.4781 187.458 11.5351 187.956 12.9346C188.321 13.9606 188.499 15.6318 188.499 17.9407V33.3939H183.249V19.5809C183.249 17.179 183.07 15.6318 182.706 14.9402C182.221 14.0307 181.467 13.5717 180.458 13.5717C179.724 13.5717 179.027 13.844 178.376 14.3881C177.731 14.9402 177.258 15.7404 176.971 16.79C176.683 17.8471 176.543 19.5108 176.543 21.788V33.3939H171.293V20.1479C171.293 17.8005 171.197 16.277 171.012 15.6008C170.827 14.9166 170.54 14.4036 170.144 14.0692C169.754 13.7355 169.218 13.5717 168.547 13.5717C167.736 13.5717 167.008 13.836 166.363 14.3651C165.711 14.9011 165.251 15.6628 164.97 16.6659C164.689 17.6684 164.549 19.3321 164.549 21.6485V33.3939H159.299V9.18778Z" fill="#383C67"/>
<path d="M197.664 16.6504L192.912 15.6244C193.449 13.2609 194.375 11.5122 195.684 10.377C196.993 9.24237 198.941 8.67476 201.522 8.67476C203.866 8.67476 205.616 9.00912 206.766 9.68529C207.909 10.3615 208.72 11.2169 209.186 12.2584C209.652 13.3 209.888 15.2044 209.888 17.9872L209.812 25.4493C209.812 27.5714 209.895 29.1421 210.061 30.1527C210.227 31.1632 210.54 32.2432 211 33.3939H205.788C205.654 32.9739 205.482 32.3524 205.283 31.5286C205.201 31.1477 205.137 30.8989 205.098 30.7823C204.204 31.8549 203.246 32.6557 202.224 33.1917C201.202 33.7283 200.117 34 198.961 34C196.924 34 195.314 33.3238 194.139 31.9715C192.963 30.6266 192.376 28.9163 192.376 26.8487C192.376 25.4883 192.644 24.2682 193.181 23.1956C193.717 22.1305 194.464 21.3067 195.435 20.7391C196.4 20.1714 197.792 19.6739 199.612 19.2465C202.065 18.687 203.77 18.1585 204.715 17.6765V17.0313C204.715 15.7875 204.466 14.9011 203.968 14.3651C203.463 13.836 202.518 13.5717 201.132 13.5717C200.193 13.5717 199.465 13.7975 198.941 14.2559C198.411 14.7069 197.99 15.5078 197.664 16.6504ZM204.715 21.8271C204.044 22.0995 202.978 22.4258 201.515 22.8066C200.059 23.1875 199.101 23.5603 198.654 23.9183C197.971 24.5169 197.626 25.2632 197.626 26.1726C197.626 27.0739 197.901 27.8438 198.45 28.497C198.999 29.1496 199.695 29.4759 200.545 29.4759C201.49 29.4759 202.397 29.095 203.259 28.3413C203.891 27.7582 204.313 27.0584 204.511 26.2191C204.645 25.6751 204.715 24.6335 204.715 23.1019V21.8271Z" fill="#383C67"/>
</svg>
