<svg width="236" height="34" viewBox="0 0 236 34" fill="none" xmlns="http://www.w3.org/2000/svg">
<path d="M0 33.3939V0H6.01429L18.6443 22.3792V0H24.3878V33.3939H18.1797L5.74293 11.4421V33.3939H0Z" fill="#383C67"/>
<path d="M35.2814 16.6504L29.9665 15.6244C30.5668 13.2609 31.6027 11.5122 33.0672 10.377C34.5311 9.24237 36.71 8.67476 39.5962 8.67476C42.218 8.67476 44.1751 9.00912 45.4612 9.68529C46.7398 10.3615 47.6468 11.2169 48.1685 12.2584C48.6901 13.3 48.954 15.2044 48.954 17.9872L48.8685 25.4493C48.8685 27.5714 48.9614 29.1421 49.1473 30.1527C49.3325 31.1632 49.6826 32.2432 50.1973 33.3939H44.3678C44.2178 32.9739 44.0252 32.3524 43.8034 31.5286C43.711 31.1477 43.6392 30.8989 43.5965 30.7823C42.5965 31.8549 41.5248 32.6557 40.3818 33.1917C39.2388 33.7283 38.0245 34 36.7316 34C34.453 34 32.6527 33.3238 31.3381 31.9715C30.0236 30.6266 29.3668 28.9163 29.3668 26.8487C29.3668 25.4883 29.6667 24.2682 30.267 23.1956C30.8667 22.1305 31.7024 21.3067 32.7884 20.7391C33.867 20.1714 35.4244 19.6739 37.4602 19.2465C40.2034 18.687 42.1108 18.1585 43.1678 17.6765V17.0313C43.1678 15.7875 42.8896 14.9011 42.332 14.3651C41.7677 13.836 40.7107 13.5717 39.1601 13.5717C38.1101 13.5717 37.296 13.7975 36.71 14.2559C36.1171 14.7069 35.6456 15.5078 35.2814 16.6504ZM43.1678 21.8271C42.4175 22.0995 41.2249 22.4258 39.5888 22.8066C37.9601 23.1875 36.889 23.5603 36.3884 23.9183C35.6245 24.5169 35.2386 25.2632 35.2386 26.1726C35.2386 27.0739 35.5459 27.8438 36.1598 28.497C36.7744 29.1496 37.5531 29.4759 38.5034 29.4759C39.5603 29.4759 40.5751 29.095 41.5391 28.3413C42.2465 27.7582 42.718 27.0584 42.9392 26.2191C43.0891 25.6751 43.1678 24.6335 43.1678 23.1019V21.8271Z" fill="#383C67"/>
<path d="M54.7471 5.92297V0H60.6194V5.92297H54.7471ZM54.7471 33.3939V9.1878H60.6194V33.3939H54.7471Z" fill="#383C67"/>
<path d="M66.2267 9.18778H71.6276V12.4917C73.5636 9.94955 75.8707 8.67476 78.5494 8.67476C79.9712 8.67476 81.2071 8.99361 82.2498 9.6307C83.2999 10.2684 84.1573 11.2324 84.8214 12.5227C85.8002 11.2324 86.8577 10.2684 87.9859 9.6307C89.1146 8.99361 90.3221 8.67476 91.6081 8.67476C93.2368 8.67476 94.6153 9.03208 95.7509 9.75539C96.8796 10.4781 97.7228 11.5351 98.2797 12.9346C98.6873 13.9606 98.8869 15.6318 98.8869 17.9407V33.3939H93.0151V19.5809C93.0151 17.179 92.815 15.6318 92.4079 14.9402C91.8652 14.0307 91.0221 13.5717 89.8934 13.5717C89.0719 13.5717 88.2932 13.844 87.5646 14.3881C86.8429 14.9402 86.3144 15.7404 85.9929 16.79C85.6714 17.8471 85.5146 19.5108 85.5146 21.788V33.3939H79.6423V20.1479C79.6423 17.8005 79.5351 16.277 79.3282 15.6008C79.1212 14.9166 78.7997 14.4036 78.3568 14.0692C77.9206 13.7355 77.3209 13.5717 76.5707 13.5717C75.6637 13.5717 74.8491 13.836 74.1279 14.3651C73.3988 14.9011 72.8846 15.6628 72.5705 16.6659C72.2558 17.6684 72.099 19.3321 72.099 21.6485V33.3939H66.2267V9.18778Z" fill="#383C67"/>
<path d="M117.625 25.7452L123.496 26.8177C122.746 29.1576 121.554 30.9374 119.932 32.1657C118.303 33.3859 116.267 34 113.831 34C109.967 34 107.102 32.6241 105.252 29.8729C103.788 27.6651 103.052 24.8823 103.052 21.5163C103.052 17.5052 104.016 14.357 105.937 12.0872C107.859 9.80935 110.295 8.67476 113.238 8.67476C116.539 8.67476 119.146 9.86394 121.06 12.2429C122.968 14.6213 123.882 18.267 123.796 23.1795H109.095C109.138 25.0765 109.609 26.5535 110.517 27.6105C111.417 28.6676 112.545 29.1961 113.888 29.1961C114.81 29.1961 115.581 28.9244 116.203 28.3804C116.832 27.8357 117.303 26.9573 117.625 25.7452ZM117.967 19.262C117.924 17.4041 117.489 15.9891 116.653 15.0258C115.817 14.0537 114.803 13.5717 113.603 13.5717C112.324 13.5717 111.267 14.0847 110.431 15.1033C109.595 16.1213 109.188 17.5133 109.202 19.262H117.967Z" fill="#383C67"/>
<path d="M140.726 33.3939V0.279778H146.941V27.7507H162.328V33.3939H140.726Z" fill="#383C67"/>
<path d="M166.693 5.92297V0H172.566V5.92297H166.693ZM166.693 33.3939V9.1878H172.566V33.3939H166.693Z" fill="#383C67"/>
<path d="M178.173 9.18778H183.574V12.4917C185.51 9.94955 187.817 8.67476 190.495 8.67476C191.917 8.67476 193.153 8.99361 194.196 9.6307C195.246 10.2684 196.103 11.2324 196.767 12.5227C197.746 11.2324 198.804 10.2684 199.932 9.6307C201.061 8.99361 202.268 8.67476 203.554 8.67476C205.183 8.67476 206.561 9.03208 207.697 9.75539C208.826 10.4781 209.669 11.5351 210.226 12.9346C210.633 13.9606 210.833 15.6318 210.833 17.9407V33.3939H204.961V19.5809C204.961 17.179 204.761 15.6318 204.354 14.9402C203.811 14.0307 202.968 13.5717 201.839 13.5717C201.018 13.5717 200.239 13.844 199.511 14.3881C198.789 14.9402 198.26 15.7404 197.939 16.79C197.617 17.8471 197.461 19.5108 197.461 21.788V33.3939H191.588V20.1479C191.588 17.8005 191.481 16.277 191.274 15.6008C191.067 14.9166 190.746 14.4036 190.303 14.0692C189.867 13.7355 189.267 13.5717 188.517 13.5717C187.61 13.5717 186.795 13.836 186.074 14.3651C185.345 14.9011 184.831 15.6628 184.517 16.6659C184.202 17.6684 184.045 19.3321 184.045 21.6485V33.3939H178.173V9.18778Z" fill="#383C67"/>
<path d="M221.084 16.6504L215.769 15.6244C216.37 13.2609 217.405 11.5122 218.87 10.377C220.334 9.24237 222.513 8.67476 225.399 8.67476C228.021 8.67476 229.978 9.00912 231.264 9.68529C232.543 10.3615 233.45 11.2169 233.971 12.2584C234.493 13.3 234.757 15.2044 234.757 17.9872L234.671 25.4493C234.671 27.5714 234.764 29.1421 234.95 30.1527C235.135 31.1632 235.485 32.2432 236 33.3939H230.17C230.021 32.9739 229.828 32.3524 229.606 31.5286C229.514 31.1477 229.442 30.8989 229.399 30.7823C228.399 31.8549 227.327 32.6557 226.184 33.1917C225.041 33.7283 223.827 34 222.534 34C220.256 34 218.455 33.3238 217.141 31.9715C215.826 30.6266 215.169 28.9163 215.169 26.8487C215.169 25.4883 215.469 24.2682 216.07 23.1956C216.669 22.1305 217.505 21.3067 218.591 20.7391C219.67 20.1714 221.227 19.6739 223.263 19.2465C226.006 18.687 227.914 18.1585 228.97 17.6765V17.0313C228.97 15.7875 228.692 14.9011 228.135 14.3651C227.57 13.836 226.513 13.5717 224.963 13.5717C223.913 13.5717 223.099 13.7975 222.513 14.2559C221.92 14.7069 221.448 15.5078 221.084 16.6504ZM228.97 21.8271C228.22 22.0995 227.028 22.4258 225.392 22.8066C223.763 23.1875 222.692 23.5603 222.191 23.9183C221.427 24.5169 221.041 25.2632 221.041 26.1726C221.041 27.0739 221.349 27.8438 221.963 28.497C222.577 29.1496 223.356 29.4759 224.306 29.4759C225.363 29.4759 226.378 29.095 227.342 28.3413C228.049 27.7582 228.521 27.0584 228.742 26.2191C228.892 25.6751 228.97 24.6335 228.97 23.1019V21.8271Z" fill="#383C67"/>
</svg>
